# xmcd
#
# Track frame offsets:
#  150
#  14399
#  27561
#  40476
#  52274
#  63525
#  74774
#  87070
#  97201
#  111072
#  122923
#  132636
#  144600
#  156748
#  168524
#  181276
#
# Disc length: 2556 seconds
#
# Revision: 0
# Processed by: cddbd v1.5.2PL0 Copyright (c) Steve Scherf et al.
# Submitted via: AltoMP3_Maker 3.0
#
DISCID=0109fa10
DTITLE=Various Artist - Country Classics Vol13
DYEAR=1900
DGENRE=
TTITLE0=The Tennessee Waltz
TTITLE1=Candy Kisses
TTITLE2=Trouble Ain't Nothin' But The Blues
TTITLE3=Cowboy's Heaven
TTITLE4=Lone Gone Lonesome Blues
TTITLE5=Wasted Words
TTITLE6=I Love You A Thousand Ways
TTITLE7=Take My Hand For A While
TTITLE8=I'm Free, (From The Chain Gang Now)
TTITLE9=There She Goes
TTITLE10=The Southern Cannonball
TTITLE11=Crazy 'Cause I Love You
TTITLE12=I'm Casting My Lasso Towards The Sky
TTITLE13=I'll Never Close My Heart To You
TTITLE14=Jilted Love
TTITLE15=Tears At The Grand Ole Op'ry
EXTD=
EXTT0=
EXTT1=
EXTT2=
EXTT3=
EXTT4=
EXTT5=
EXTT6=
EXTT7=
EXTT8=
EXTT9=
EXTT10=
EXTT11=
EXTT12=
EXTT13=
EXTT14=
EXTT15=
PLAYORDER=
